<svg width="250" height="100" viewBox="0 0 250 100" fill="none" xmlns="http://www.w3.org/2000/svg">
<mask id="mask0_1_112" style="mask-type:luminance" maskUnits="userSpaceOnUse" x="33" y="56" width="183" height="6">
<path d="M33.0688 56.1225H215.608V56.4307H33.0688V56.1225ZM86.542 56.4307H215.608V61.5646H86.542V56.4307ZM33.0688 56.4307H66.7524V61.5646H33.0688V56.4307Z" fill="white"/>
</mask>
<g mask="url(#mask0_1_112)">
<path d="M34.2365 56.9409H215.273V61.0226H34.2365V56.9409Z" fill="#1B86EA"/>
</g>
<path d="M40.3322 53.8776C39.9189 53.8776 39.7122 53.665 39.7122 53.2399V20.2254C39.7122 19.8002 39.9189 19.5877 40.3322 19.5877H43.0397C43.4789 19.5877 43.7011 19.8002 43.7011 20.2254V50.0086H65.9399C66.3532 50.0086 66.5599 50.2212 66.5599 50.6463V53.2399C66.5599 53.665 66.3532 53.8776 65.9399 53.8776H40.3322Z" fill="#1B86EA"/>
<path d="M72.1288 63.1889C71.7155 63.1889 71.5088 62.9763 71.5088 62.5511V60.1914C71.5088 59.7662 71.7155 59.5537 72.1288 59.5537H73.9889C75.0637 59.5537 75.8801 59.3464 76.4484 58.9372C77.0271 58.5386 77.5697 57.7998 78.0812 56.7263L79.4246 53.6863L68.0366 30.0681C67.9642 29.9724 67.9332 29.8449 67.9332 29.6855C67.9332 29.3187 68.1864 29.1327 68.6979 29.1327H70.9301C71.4106 29.1327 71.7465 29.3666 71.9428 29.8343L77.9779 42.1642L81.3261 49.0307H81.5534L84.695 42.1642L90.42 29.8343C90.637 29.3666 90.9832 29.1327 91.4534 29.1327H93.7889C94.2436 29.1327 94.4709 29.3187 94.4709 29.6855C94.4709 29.813 94.4193 29.9778 94.3262 30.1744L81.9875 57.0026C81.2279 58.6714 80.4994 59.9416 79.7967 60.8079C79.0939 61.6689 78.2879 62.2801 77.3785 62.6361C76.4794 63.0028 75.3169 63.1889 73.8856 63.1889H72.1288Z" fill="#1B86EA"/>
<path d="M99.0221 53.8776C98.6088 53.8776 98.4021 53.665 98.4021 53.2399V29.7705C98.4021 29.3453 98.6088 29.1327 99.0221 29.1327H101.502C101.941 29.1327 102.164 29.3453 102.164 29.7705V31.79H102.412C102.825 30.9397 103.476 30.2701 104.375 29.7705C105.285 29.2603 106.37 29.0052 107.641 29.0052H115.205C115.619 29.0052 115.825 29.2178 115.825 29.6429V32.0877C115.825 32.5128 115.619 32.7254 115.205 32.7254H106.256C104.794 32.7254 103.745 33.0549 103.114 33.7033C102.479 34.357 102.164 35.4359 102.164 36.9346V53.2399C102.164 53.665 101.941 53.8776 101.502 53.8776H99.0221Z" fill="#1B86EA"/>
<path d="M121.216 25.0298C120.803 25.0298 120.596 24.8172 120.596 24.3921V21.4584C120.596 21.0332 120.803 20.8206 121.216 20.8206H124.151C124.605 20.8206 124.833 21.0332 124.833 21.4584V24.3921C124.833 24.8172 124.605 25.0298 124.151 25.0298H121.216ZM121.443 53.8776C121.03 53.8776 120.823 53.665 120.823 53.2399V29.7705C120.823 29.3453 121.03 29.1327 121.443 29.1327H123.923C124.363 29.1327 124.585 29.3453 124.585 29.7705V53.2399C124.585 53.665 124.363 53.8776 123.923 53.8776H121.443Z" fill="#1B86EA"/>
<path d="M129.356 53.8776C128.844 53.8776 128.591 53.7182 128.591 53.3887C128.591 53.192 128.684 52.9795 128.88 52.7509L142.005 36.2543V36.148L129.686 20.6718C129.521 20.5018 129.438 20.3264 129.438 20.1404C129.438 19.9703 129.5 19.8374 129.624 19.7365C129.759 19.6408 129.94 19.5877 130.162 19.5877H132.911C133.2 19.5877 133.427 19.6302 133.593 19.7152C133.768 19.8002 133.944 19.9437 134.109 20.1404L144.402 33.1081H144.547L154.819 20.1404C155.134 19.7737 155.532 19.5877 156.017 19.5877H158.766C159.247 19.5877 159.49 19.7524 159.49 20.0766C159.49 20.3051 159.407 20.5018 159.242 20.6718L146.924 36.148V36.2543L160.068 52.7509C160.244 52.9529 160.337 53.1495 160.337 53.3462C160.337 53.7022 160.089 53.8776 159.593 53.8776H156.823C156.575 53.8776 156.358 53.8351 156.183 53.7501C156.002 53.665 155.816 53.5109 155.625 53.2824L148.246 44.0349L144.547 39.3368H144.402L140.682 44.0349L133.303 53.2824C133.107 53.4843 132.921 53.6332 132.745 53.7288C132.58 53.8298 132.363 53.8776 132.105 53.8776H129.356Z" fill="#1B86EA"/>
<path d="M167.666 42.7169V46.4372C167.666 47.9412 167.982 49.0201 168.617 49.6684C169.247 50.3221 170.296 50.6463 171.759 50.6463H181.535C182.899 50.6463 183.875 50.3593 184.469 49.7747C185.074 49.1795 185.379 48.2441 185.379 46.9686V46.4372C185.379 45.9854 185.586 45.7569 185.999 45.7569H188.582C188.996 45.7569 189.202 45.9854 189.202 46.4372V47.2662C189.202 51.773 186.867 54.0264 182.196 54.0264H170.953C168.638 54.0264 166.881 53.4099 165.682 52.1769C164.494 50.9333 163.905 49.1157 163.905 46.7348V36.2968C163.905 33.9159 164.494 32.1089 165.682 30.8759C166.881 29.6323 168.638 29.0052 170.953 29.0052H182.237C184.552 29.0052 186.299 29.6323 187.487 30.8759C188.686 32.1089 189.285 33.9159 189.285 36.2968V42.0792C189.285 42.5043 189.078 42.7169 188.665 42.7169H167.666ZM171.759 32.3215C170.296 32.3215 169.247 32.6616 168.617 33.3419C167.982 34.0116 167.666 35.0745 167.666 36.5307V39.3793H185.524V36.5307C185.524 35.0745 185.198 34.0116 184.552 33.3419C183.901 32.6616 182.847 32.3215 181.39 32.3215H171.759Z" fill="#1B86EA"/>
<path d="M198.037 53.8776C197.624 53.8776 197.417 53.665 197.417 53.2399V29.7705C197.417 29.3453 197.624 29.1327 198.037 29.1327H200.517C200.956 29.1327 201.178 29.3453 201.178 29.7705V31.79H201.426C201.84 30.9397 202.491 30.2701 203.39 29.7705C204.299 29.2603 205.384 29.0052 206.655 29.0052H214.22C214.633 29.0052 214.84 29.2178 214.84 29.6429V32.0877C214.84 32.5128 214.633 32.7254 214.22 32.7254H205.271C203.808 32.7254 202.76 33.0549 202.129 33.7033C201.494 34.357 201.178 35.4359 201.178 36.9346V53.2399C201.178 53.665 200.956 53.8776 200.517 53.8776H198.037Z" fill="#1B86EA"/>
<path d="M17.1005 70.0127H19.0433V82.8953H28.9433V84.8299H17.1005V70.0127Z" fill="#5E17EB"/>
<path d="M31.049 74.2431H32.9918L36.34 82.9804L39.6469 74.2431H41.6104L35.472 89.0603H33.5498L35.3686 84.6598L31.049 74.2431Z" fill="#5E17EB"/>
<path d="M44.976 74.2431H46.7534V75.9226C46.9704 75.4017 47.3115 74.9872 47.7661 74.6896C48.2312 74.3919 48.722 74.2431 49.2336 74.2431H51.6517V76.0076H48.7169C48.1898 76.0076 47.73 76.2095 47.3321 76.6028C46.9446 76.9855 46.7534 77.4532 46.7534 78.0059V84.8299H44.976V74.2431Z" fill="#5E17EB"/>
<path d="M55.0248 74.2431H56.8229V84.8299H55.0248V74.2431ZM54.8801 70.0127H56.9676V71.7346H54.8801V70.0127Z" fill="#5E17EB"/>
<path d="M63.3854 74.2431H68.9865C69.5755 74.2431 70.0664 74.4504 70.4539 74.8596C70.8517 75.2742 71.0532 75.7737 71.0532 76.369V77.6232H69.2551V76.943C69.2551 76.6879 69.1725 76.47 69.0071 76.2839C68.8418 76.1033 68.6351 76.0076 68.3871 76.0076H64.0055C63.7678 76.0076 63.5611 76.1033 63.3854 76.2839C63.2046 76.47 63.1167 76.6879 63.1167 76.943V82.1513C63.1167 82.3958 63.2046 82.6137 63.3854 82.8103C63.5611 82.9963 63.7678 83.0867 64.0055 83.0867H68.3871C68.6351 83.0867 68.8418 82.9963 69.0071 82.8103C69.1725 82.6137 69.2551 82.3958 69.2551 82.1513V81.4498H71.0532V82.7253C71.0532 83.3099 70.8517 83.8041 70.4539 84.2134C70.0664 84.6279 69.5755 84.8299 68.9865 84.8299H63.3854C62.8171 84.8299 62.3365 84.6279 61.9387 84.2134C61.5356 83.8041 61.3393 83.3099 61.3393 82.7253V76.369C61.3393 75.7737 61.5356 75.2742 61.9387 74.8596C62.3365 74.4504 62.8171 74.2431 63.3854 74.2431Z" fill="#5E17EB"/>
<path d="M77.3602 74.2431H82.9612C83.3332 74.2431 83.6742 74.3441 83.9946 74.5408C84.3098 74.7427 84.5578 75.0031 84.7386 75.3273C84.9298 75.6409 85.028 75.9863 85.028 76.369V77.4319H83.2299V76.943C83.2299 76.6879 83.1472 76.47 82.9819 76.2839C82.8165 76.1033 82.6098 76.0076 82.3618 76.0076H77.9802C77.7425 76.0076 77.5358 76.1033 77.3602 76.2839C77.1793 76.47 77.0915 76.6879 77.0915 76.943V77.7933C77.0915 78.0378 77.1793 78.2504 77.3602 78.4311C77.5358 78.6011 77.7425 78.6862 77.9802 78.6862H82.9612C83.5502 78.6862 84.0411 78.8934 84.4286 79.3027C84.8265 79.7172 85.028 80.2168 85.028 80.812V82.7253C85.028 83.3099 84.8265 83.8041 84.4286 84.2134C84.0411 84.6279 83.5502 84.8299 82.9612 84.8299H77.3602C76.9881 84.8299 76.642 84.7342 76.3268 84.5322C76.0219 84.3356 75.7739 84.0805 75.5827 83.7669C75.4019 83.4428 75.314 83.0973 75.314 82.7253V81.6411H77.0915V82.1513C77.0915 82.3958 77.1793 82.6137 77.3602 82.8103C77.5358 82.9963 77.7425 83.0867 77.9802 83.0867H82.3618C82.6098 83.0867 82.8165 82.9963 82.9819 82.8103C83.1472 82.6137 83.2299 82.3958 83.2299 82.1513V81.2797C83.2299 81.0246 83.1472 80.812 82.9819 80.6419C82.8165 80.4719 82.6098 80.3868 82.3618 80.3868H77.3602C76.7918 80.3868 76.3113 80.1849 75.9134 79.7703C75.5104 79.3611 75.314 78.8669 75.314 78.2822V76.369C75.314 75.7737 75.5104 75.2742 75.9134 74.8596C76.3113 74.4504 76.7918 74.2431 77.3602 74.2431Z" fill="#5E17EB"/>
<path d="M96.8782 70.0127H108.721V71.9472H98.8209V76.454H106.654V78.3885H98.8209V82.8953H108.721V84.8299H96.8782V70.0127Z" fill="#5E17EB"/>
<path d="M111.03 74.2431H113.262L116.321 78.3673L119.339 74.2431H121.592L117.417 79.5365L121.592 84.8299H119.339L116.321 80.727L113.262 84.8299H111.03L115.184 79.5365L111.03 74.2431Z" fill="#5E17EB"/>
<path d="M125.123 70.0127H126.9V74.2431H131.137V76.0076H126.9V82.1513C126.9 82.3958 126.988 82.6137 127.169 82.8103C127.344 82.9963 127.551 83.0867 127.789 83.0867H131.137V84.8299H127.169C126.6 84.8299 126.12 84.6279 125.722 84.2134C125.319 83.8041 125.123 83.3099 125.123 82.7253V70.0127Z" fill="#5E17EB"/>
<path d="M134.582 74.2431H136.36V75.9226C136.577 75.4017 136.918 74.9872 137.373 74.6896C137.838 74.3919 138.329 74.2431 138.84 74.2431H141.258V76.0076H138.323C137.796 76.0076 137.336 76.2095 136.939 76.6028C136.551 76.9855 136.36 77.4532 136.36 78.0059V84.8299H134.582V74.2431Z" fill="#5E17EB"/>
<path d="M146.698 74.2431H151.906C152.485 74.2431 152.966 74.4504 153.353 74.8596C153.751 75.2742 153.953 75.7737 153.953 76.369V84.8299H152.154V83.1292C151.958 83.6394 151.638 84.0539 151.183 84.3622C150.739 84.6757 150.222 84.8299 149.633 84.8299H146.285C145.716 84.8299 145.236 84.6279 144.838 84.2134C144.435 83.8041 144.239 83.3099 144.239 82.7253V80.5994C144.239 80.0042 144.435 79.5099 144.838 79.1113C145.236 78.7021 145.716 78.4948 146.285 78.4948H152.154V76.943C152.154 76.6879 152.072 76.47 151.906 76.2839C151.741 76.1033 151.534 76.0076 151.286 76.0076H147.318C147.08 76.0076 146.874 76.1033 146.698 76.2839C146.517 76.47 146.429 76.6879 146.429 76.943V77.4319H144.652V76.369C144.652 75.9757 144.74 75.6196 144.921 75.3061C145.096 74.9978 145.344 74.7427 145.665 74.5408C145.98 74.3441 146.326 74.2431 146.698 74.2431ZM152.154 80.1743H146.905C146.667 80.1743 146.46 80.2699 146.285 80.4506C146.119 80.6207 146.037 80.828 146.037 81.0671V82.1513C146.037 82.3958 146.119 82.6137 146.285 82.8103C146.46 82.9963 146.667 83.0867 146.905 83.0867H150.191C150.739 83.0867 151.204 82.89 151.576 82.4914C151.958 82.0822 152.154 81.6092 152.154 81.0671V80.1743Z" fill="#5E17EB"/>
<path d="M160.506 74.2431H166.107C166.696 74.2431 167.187 74.4504 167.575 74.8596C167.973 75.2742 168.174 75.7737 168.174 76.369V77.6232H166.376V76.943C166.376 76.6879 166.293 76.47 166.128 76.2839C165.963 76.1033 165.756 76.0076 165.508 76.0076H161.126C160.889 76.0076 160.682 76.1033 160.506 76.2839C160.325 76.47 160.238 76.6879 160.238 76.943V82.1513C160.238 82.3958 160.325 82.6137 160.506 82.8103C160.682 82.9963 160.889 83.0867 161.126 83.0867H165.508C165.756 83.0867 165.963 82.9963 166.128 82.8103C166.293 82.6137 166.376 82.3958 166.376 82.1513V81.4498H168.174V82.7253C168.174 83.3099 167.973 83.8041 167.575 84.2134C167.187 84.6279 166.696 84.8299 166.107 84.8299H160.506C159.938 84.8299 159.457 84.6279 159.06 84.2134C158.656 83.8041 158.46 83.3099 158.46 82.7253V76.369C158.46 75.7737 158.656 75.2742 159.06 74.8596C159.457 74.4504 159.938 74.2431 160.506 74.2431Z" fill="#5E17EB"/>
<path d="M172.6 70.0127H174.378V74.2431H178.615V76.0076H174.378V82.1513C174.378 82.3958 174.466 82.6137 174.646 82.8103C174.822 82.9963 175.029 83.0867 175.266 83.0867H178.615V84.8299H174.646C174.078 84.8299 173.597 84.6279 173.2 84.2134C172.797 83.8041 172.6 83.3099 172.6 82.7253V70.0127Z" fill="#5E17EB"/>
<path d="M184.106 74.2431H189.707C190.296 74.2431 190.787 74.4504 191.175 74.8596C191.573 75.2742 191.774 75.7737 191.774 76.369V82.7253C191.774 83.3099 191.573 83.8041 191.175 84.2134C190.787 84.6279 190.296 84.8299 189.707 84.8299H184.106C183.538 84.8299 183.057 84.6279 182.66 84.2134C182.257 83.8041 182.06 83.3099 182.06 82.7253V76.369C182.06 75.7737 182.257 75.2742 182.66 74.8596C183.057 74.4504 183.538 74.2431 184.106 74.2431ZM184.726 76.0076C184.489 76.0076 184.282 76.1033 184.106 76.2839C183.925 76.47 183.838 76.6879 183.838 76.943V82.1513C183.838 82.3958 183.925 82.6137 184.106 82.8103C184.282 82.9963 184.489 83.0867 184.726 83.0867H189.108C189.356 83.0867 189.563 82.9963 189.728 82.8103C189.893 82.6137 189.976 82.3958 189.976 82.1513V76.943C189.976 76.6879 189.893 76.47 189.728 76.2839C189.563 76.1033 189.356 76.0076 189.108 76.0076H184.726Z" fill="#5E17EB"/>
<path d="M196.276 74.2431H198.053V75.9226C198.27 75.4017 198.611 74.9872 199.066 74.6896C199.531 74.3919 200.022 74.2431 200.533 74.2431H202.951V76.0076H200.016C199.489 76.0076 199.03 76.2095 198.632 76.6028C198.244 76.9855 198.053 77.4532 198.053 78.0059V84.8299H196.276V74.2431Z" fill="#5E17EB"/>
<path d="M218.592 70.0127H221.527L227.583 84.8299H225.475L223.842 80.897H216.257L214.645 84.8299H212.557L218.592 70.0127ZM217.063 78.9625H223.056L220.06 71.7134L217.063 78.9625Z" fill="#5E17EB"/>
<path d="M230.963 70.0127H232.906V84.8299H230.963V70.0127Z" fill="#5E17EB"/>
</svg>
